#!OML:ASF I:\Actors\actors\Patient Classification 1\Patient 1\Session 1\Subject1.ASF
:FULLY-SPECIFIED
:DEGREES
716
root -0.389425 17.5461 7.68204 6.28837 -0.30102 -6.23643
lowerback 6.78509 1.85293 1.80141
upperback -6.04204 2.69469 -0.158013
thorax -10.1619 1.16882 -1.59397
lowerneck -0.504752 -8.2295 -10.3083
upperneck -4.84252 -10.6565 19.335
head 0.361592 -5.42006 7.38242
rclavicle -4.32357e-015 2.38542e-015
rhumerus -59.8673 -26.3383 -64.3455
rradius 32.402
rwrist 22.3786
rhand -18.345 -31.8142
rfingers 7.12502
rthumb 7.9374 -61.6452
lclavicle -4.32357e-015 2.38542e-015
lhumerus -59.5424 23.8715 62.3661
lradius 40.7678
lwrist -4.00848
lhand -32.6258 -27.9243
lfingers 7.12502
lthumb -5.85294 1.97483
rfemur -0.171405 21.5729 24.432
rtibia 1.79943
rfoot -11.7467 -22.6557
rtoes 4.07884
lfemur 7.17916 -37.81 -17.032
ltibia -2.83942
lfoot -11.1961 39.8304
ltoes -6.47771
717
root -0.388874 17.5479 7.68918 6.27837 -0.331371 -6.27644
lowerback 6.79941 1.84347 1.89267
upperback -6.0848 2.69819 -0.107811
thorax -10.2165 1.16483 -1.59364
lowerneck -0.356423 -8.16429 -10.3023
upperneck -4.91918 -10.5662 19.2237
head 0.293224 -5.38348 7.36087
rclavicle -6.70898e-015 0
rhumerus -59.4122 -26.0313 -64.8119
rradius 32.6241
rwrist 21.9395
rhand -18.198 -31.9537
rfingers 7.12502
rthumb 8.07925 -61.7793
lclavicle -6.70898e-015 0
lhumerus -59.3582 24.78 61.8227
lradius 39.7197
lwrist -5.03102
lhand -32.3378 -28.4451
lfingers 7.12502
lthumb -5.57489 1.46156
rfemur -0.0910477 21.694 24.5094
rtibia 1.74492
rfoot -11.7573 -22.7295
rtoes 4.21276
lfemur 7.32313 -37.9079 -17.0702
ltibia -2.91646
lfoot -11.2696 39.9607
ltoes -6.46286
718
root -0.388206 17.549 7.69504 6.25195 -0.38752 -6.31527
lowerback 6.85437 1.85577 1.98885
upperback -6.11577 2.73206 -0.0627646
thorax -10.2809 1.17472 -1.60755
lowerneck -0.329431 -8.13749 -10.2804
upperneck -4.90126 -10.5337 19.043
head 0.27558 -5.36606 7.30333
rclavicle -1.76421e-014 -1.51076e-014
rhumerus -58.9869 -25.9182 -65.0751
rradius 32.8443
rwrist 21.7582
rhand -18.17 -31.7529
rfingers 7.12502
rthumb 8.10623 -61.5774
lclavicle -1.76421e-014 -1.51076e-014
lhumerus -58.9696 24.4924 62.3217
lradius 39.6562
lwrist -4.69285
lhand -32.0037 -28.211
lfingers 7.12502
lthumb -5.25227 1.70393
rfemur 0.00752492 21.7987 24.5898
rtibia 1.67473
rfoot -11.6991 -22.7697
rtoes 4.08504
lfemur 7.48424 -37.9929 -17.1323
ltibia -2.97561
lfoot -11.2451 40.1037
ltoes -6.58664
719
root -0.3876 17.5486 7.69958 6.22115 -0.455091 -6.30898
lowerback 6.93102 1.85061 2.02428
upperback -6.15908 2.73542 -0.0264783
thorax -10.3755 1.17319 -1.59344
lowerneck -0.409797 -8.11211 -10.2684
upperneck -4.72654 -10.5167 18.8729
head 0.324414 -5.34679 7.24071
rclavicle 2.01766e-014 -7.15625e-015
rhumerus -58.5638 -25.7273 -65.4405
rradius 33.2563
rwrist 21.5102
rhand -18.177 -31.7806
rfingers 7.12502
rthumb 8.09949 -61.6054
lclavicle 2.01766e-014 -7.15625e-015
lhumerus -58.5759 23.1977 63.6239
lradius 40.5891
lwrist -3.28053
lhand -31.6589 -27.2434
lfingers 7.12502
lthumb -4.9194 2.67945
rfemur 0.0849155 21.8327 24.6082
rtibia 1.61414
rfoot -11.5816 -22.766
rtoes 3.64116
lfemur 7.63154 -38.0414 -17.2456
ltibia -3.00252
lfoot -11.3517 40.2097
ltoes -6.46456
720
root -0.386061 17.5479 7.7049 6.21729 -0.541451 -6.25563
lowerback 6.96202 1.85062 2.04029
upperback -6.21821 2.73902 -0.0291606
thorax -10.4593 1.17163 -1.60865
lowerneck -0.503817 -8.06124 -10.1857
upperneck -4.50032 -10.4694 18.7285
head 0.38359 -5.31185 7.17446
rclavicle 1.20265e-014 -7.15625e-015
rhumerus -58.1197 -25.3546 -66.04
rradius 33.869
rwrist 20.9626
rhand -18.1628 -32.1573
rfingers 7.12502
rthumb 8.11321 -61.9816
lclavicle 1.20265e-014 -7.15625e-015
lhumerus -58.316 24.2682 62.8724
lradius 39.6873
lwrist -4.8914
lhand -30.8903 -27.8899
lfingers 7.12502
lthumb -4.17721 2.04892
rfemur 0.103649 21.7675 24.535
rtibia 1.59888
rfoot -11.528 -22.6412
rtoes 3.39223
lfemur 7.77401 -38.1515 -17.4329
ltibia -3.02802
lfoot -11.4977 40.402
ltoes -6.39314
721
root -0.383055 17.5486 7.71183 6.2471 -0.648957 -6.16102
lowerback 6.93235 1.87347 2.04744
upperback -6.29357 2.77031 -0.0411456
thorax -10.5236 1.18408 -1.63105
lowerneck -0.486795 -8.00889 -10.1048
upperneck -4.3385 -10.4188 18.5321
head 0.402055 -5.28188 7.09944
rclavicle -2.17172e-014 -1.27222e-014
rhumerus -57.6663 -24.9294 -66.6276
rradius 34.5222
rwrist 20.3553
rhand -18.1541 -32.4445
rfingers 7.12502
rthumb 8.12157 -62.2685
lclavicle -2.17172e-014 -1.27222e-014
lhumerus -57.8828 23.6523 63.5798
lradius 40.1555
lwrist -4.59143
lhand -30.0176 -27.0567
lfingers 7.12502
lthumb -3.33444 2.89697
rfemur 0.0878618 21.728 24.3897
rtibia 1.58302
rfoot -11.5062 -22.5061
rtoes 3.14718
lfemur 7.91879 -38.3779 -17.6993
ltibia -3.075
lfoot -11.5093 40.7562
ltoes -6.41191
